<mxfile host="app.diagrams.net" modified="2022-06-23T04:52:13.711Z" agent="5.0 (Windows NT 10.0; Win64; x64) AppleWebKit/537.36 (KHTML, like Gecko) Chrome/103.0.0.0 Safari/537.36" etag="oSvJpkOcTET5TRm-48So" version="18.1.3" type="github">
  <diagram id="uYV7lENQdcqYRm_3bJDJ" name="Learning Outline">
    <mxGraphModel dx="2272" dy="762" grid="1" gridSize="10" guides="1" tooltips="1" connect="1" arrows="1" fold="1" page="1" pageScale="1" pageWidth="850" pageHeight="1100" math="0" shadow="0">
      <root>
        <mxCell id="0" />
        <mxCell id="1" parent="0" />
        <mxCell id="hwHDSwvyFzbsl33l7Glt-1" value="Learning Plan" style="ellipse;whiteSpace=wrap;html=1;rounded=0;shadow=1;comic=0;labelBackgroundColor=none;strokeWidth=1;fontFamily=Comic Sans MS;fontSize=20;align=center;fontStyle=1;fontColor=#0000FF;strokeColor=#000099;sketch=1;fillColor=#A9C4EB;" vertex="1" parent="1">
          <mxGeometry x="160" y="280" width="120" height="80" as="geometry" />
        </mxCell>
        <mxCell id="hwHDSwvyFzbsl33l7Glt-2" value="" style="sketch=1;orthogonalLoop=1;jettySize=auto;html=1;fontSize=14;fontColor=#0000FF;endArrow=open;endFill=0;curved=1;shadow=1;" edge="1" parent="1" source="hwHDSwvyFzbsl33l7Glt-3" target="hwHDSwvyFzbsl33l7Glt-5">
          <mxGeometry relative="1" as="geometry">
            <Array as="points">
              <mxPoint x="280" y="70" />
            </Array>
          </mxGeometry>
        </mxCell>
        <mxCell id="hwHDSwvyFzbsl33l7Glt-3" value="Docker" style="ellipse;whiteSpace=wrap;html=1;rounded=0;shadow=0;comic=0;labelBackgroundColor=none;strokeWidth=1;fontFamily=Comic Sans MS;fontSize=14;align=center;sketch=1;fontStyle=1" vertex="1" parent="1">
          <mxGeometry x="200" y="100" width="90" height="60" as="geometry" />
        </mxCell>
        <mxCell id="hwHDSwvyFzbsl33l7Glt-4" value="" style="endArrow=open;html=1;fontSize=14;fontColor=#0000FF;exitX=0.5;exitY=0;exitDx=0;exitDy=0;sketch=1;entryX=0.5;entryY=1;entryDx=0;entryDy=0;curved=1;endFill=0;shadow=1;" edge="1" parent="1" source="hwHDSwvyFzbsl33l7Glt-1" target="hwHDSwvyFzbsl33l7Glt-3">
          <mxGeometry width="50" height="50" relative="1" as="geometry">
            <mxPoint x="390" y="470" as="sourcePoint" />
            <mxPoint x="440" y="420" as="targetPoint" />
            <Array as="points">
              <mxPoint x="220" y="220" />
            </Array>
          </mxGeometry>
        </mxCell>
        <mxCell id="hwHDSwvyFzbsl33l7Glt-5" value="Basics" style="ellipse;whiteSpace=wrap;html=1;rounded=0;shadow=0;comic=0;labelBackgroundColor=none;strokeWidth=1;fontFamily=Comic Sans MS;fontSize=14;align=center;sketch=1;fontStyle=1;" vertex="1" parent="1">
          <mxGeometry x="310" y="20" width="70" height="40" as="geometry" />
        </mxCell>
        <mxCell id="hwHDSwvyFzbsl33l7Glt-6" value="Unix" style="ellipse;whiteSpace=wrap;html=1;rounded=0;shadow=0;comic=0;labelBackgroundColor=none;strokeWidth=1;fontFamily=Comic Sans MS;fontSize=14;align=center;sketch=1;fontStyle=1" vertex="1" parent="1">
          <mxGeometry x="-110" y="480" width="90" height="60" as="geometry" />
        </mxCell>
        <mxCell id="hwHDSwvyFzbsl33l7Glt-7" value="" style="endArrow=open;html=1;fontSize=14;fontColor=#0000FF;sketch=1;entryX=1;entryY=0.5;entryDx=0;entryDy=0;curved=1;endFill=0;shadow=1;" edge="1" parent="1" source="hwHDSwvyFzbsl33l7Glt-1" target="hwHDSwvyFzbsl33l7Glt-6">
          <mxGeometry width="50" height="50" relative="1" as="geometry">
            <mxPoint x="292.97" y="414" as="sourcePoint" />
            <mxPoint x="450" y="510" as="targetPoint" />
            <Array as="points">
              <mxPoint x="110" y="450" />
            </Array>
          </mxGeometry>
        </mxCell>
        <mxCell id="hwHDSwvyFzbsl33l7Glt-8" value="" style="edgeStyle=none;shape=connector;curved=1;rounded=1;sketch=1;orthogonalLoop=1;jettySize=auto;html=1;labelBackgroundColor=default;fontFamily=Helvetica;fontSize=14;fontColor=#0000FF;endArrow=open;endFill=0;strokeColor=default;shadow=1;" edge="1" parent="1" source="hwHDSwvyFzbsl33l7Glt-14" target="hwHDSwvyFzbsl33l7Glt-18">
          <mxGeometry relative="1" as="geometry">
            <Array as="points">
              <mxPoint x="385" y="680" />
            </Array>
          </mxGeometry>
        </mxCell>
        <mxCell id="hwHDSwvyFzbsl33l7Glt-9" value="" style="edgeStyle=none;shape=connector;curved=1;rounded=1;sketch=1;orthogonalLoop=1;jettySize=auto;html=1;labelBackgroundColor=default;fontFamily=Comic Sans MS;fontSize=14;fontColor=default;endArrow=open;endFill=0;strokeColor=default;shadow=1;exitX=0.5;exitY=1;exitDx=0;exitDy=0;" edge="1" parent="1" source="hwHDSwvyFzbsl33l7Glt-21" target="hwHDSwvyFzbsl33l7Glt-19">
          <mxGeometry relative="1" as="geometry">
            <mxPoint x="350" y="1000" as="sourcePoint" />
            <Array as="points">
              <mxPoint x="380" y="1000" />
            </Array>
          </mxGeometry>
        </mxCell>
        <mxCell id="hwHDSwvyFzbsl33l7Glt-10" value="" style="edgeStyle=none;shape=connector;curved=1;rounded=1;sketch=1;orthogonalLoop=1;jettySize=auto;html=1;labelBackgroundColor=default;fontFamily=Comic Sans MS;fontSize=14;fontColor=default;endArrow=open;endFill=0;strokeColor=default;exitX=0.07;exitY=0.833;exitDx=0;exitDy=0;exitPerimeter=0;shadow=1;" edge="1" parent="1" source="hwHDSwvyFzbsl33l7Glt-21" target="hwHDSwvyFzbsl33l7Glt-20">
          <mxGeometry relative="1" as="geometry" />
        </mxCell>
        <mxCell id="hwHDSwvyFzbsl33l7Glt-11" value="" style="edgeStyle=none;shape=connector;curved=1;rounded=1;sketch=1;orthogonalLoop=1;jettySize=auto;html=1;labelBackgroundColor=default;fontFamily=Comic Sans MS;fontSize=14;fontColor=default;endArrow=open;endFill=0;strokeColor=default;shadow=1;" edge="1" parent="1" source="hwHDSwvyFzbsl33l7Glt-14" target="hwHDSwvyFzbsl33l7Glt-21">
          <mxGeometry relative="1" as="geometry" />
        </mxCell>
        <mxCell id="hwHDSwvyFzbsl33l7Glt-12" value="" style="edgeStyle=none;shape=connector;curved=1;rounded=1;sketch=1;orthogonalLoop=1;jettySize=auto;html=1;labelBackgroundColor=default;fontFamily=Helvetica;fontSize=14;fontColor=#0000FF;endArrow=open;endFill=0;strokeColor=default;shadow=1;" edge="1" parent="1" target="hwHDSwvyFzbsl33l7Glt-26">
          <mxGeometry relative="1" as="geometry">
            <mxPoint x="210" y="350" as="sourcePoint" />
            <Array as="points">
              <mxPoint x="130" y="560" />
            </Array>
          </mxGeometry>
        </mxCell>
        <mxCell id="hwHDSwvyFzbsl33l7Glt-13" value="" style="edgeStyle=none;shape=connector;curved=1;rounded=1;sketch=1;orthogonalLoop=1;jettySize=auto;html=1;labelBackgroundColor=default;fontFamily=Helvetica;fontSize=14;fontColor=#0000FF;endArrow=open;endFill=0;strokeColor=default;shadow=1;" edge="1" parent="1" source="hwHDSwvyFzbsl33l7Glt-14" target="hwHDSwvyFzbsl33l7Glt-33">
          <mxGeometry relative="1" as="geometry">
            <Array as="points">
              <mxPoint x="380" y="840" />
            </Array>
          </mxGeometry>
        </mxCell>
        <mxCell id="hwHDSwvyFzbsl33l7Glt-14" value="Java" style="ellipse;whiteSpace=wrap;html=1;rounded=0;shadow=0;comic=0;labelBackgroundColor=none;strokeWidth=1;fontFamily=Comic Sans MS;fontSize=14;align=center;sketch=1;fontStyle=1" vertex="1" parent="1">
          <mxGeometry x="255" y="720" width="90" height="60" as="geometry" />
        </mxCell>
        <mxCell id="hwHDSwvyFzbsl33l7Glt-15" value="" style="endArrow=open;html=1;fontSize=14;fontColor=#0000FF;sketch=1;entryX=0.5;entryY=0;entryDx=0;entryDy=0;curved=1;endFill=0;exitX=0.5;exitY=1;exitDx=0;exitDy=0;shadow=1;" edge="1" parent="1" source="hwHDSwvyFzbsl33l7Glt-1" target="hwHDSwvyFzbsl33l7Glt-14">
          <mxGeometry width="50" height="50" relative="1" as="geometry">
            <mxPoint x="274.6327073540899" y="362.5773008412111" as="sourcePoint" />
            <mxPoint x="420" y="430" as="targetPoint" />
            <Array as="points">
              <mxPoint x="310" y="520" />
            </Array>
          </mxGeometry>
        </mxCell>
        <mxCell id="hwHDSwvyFzbsl33l7Glt-16" value="" style="edgeStyle=none;shape=connector;curved=1;rounded=1;sketch=1;orthogonalLoop=1;jettySize=auto;html=1;labelBackgroundColor=default;fontFamily=Helvetica;fontSize=14;fontColor=#0000FF;endArrow=open;endFill=0;strokeColor=default;shadow=1;" edge="1" parent="1" source="hwHDSwvyFzbsl33l7Glt-18" target="hwHDSwvyFzbsl33l7Glt-22">
          <mxGeometry relative="1" as="geometry">
            <Array as="points">
              <mxPoint x="550" y="615" />
            </Array>
          </mxGeometry>
        </mxCell>
        <mxCell id="hwHDSwvyFzbsl33l7Glt-17" value="" style="edgeStyle=none;shape=connector;curved=1;rounded=1;sketch=1;orthogonalLoop=1;jettySize=auto;html=1;labelBackgroundColor=default;fontFamily=Helvetica;fontSize=14;fontColor=#0000FF;endArrow=open;endFill=0;strokeColor=default;shadow=1;" edge="1" parent="1" source="hwHDSwvyFzbsl33l7Glt-18" target="hwHDSwvyFzbsl33l7Glt-23">
          <mxGeometry relative="1" as="geometry">
            <Array as="points">
              <mxPoint x="530" y="720" />
            </Array>
          </mxGeometry>
        </mxCell>
        <mxCell id="hwHDSwvyFzbsl33l7Glt-18" value="Paradigms" style="ellipse;whiteSpace=wrap;html=1;rounded=0;shadow=0;comic=0;labelBackgroundColor=none;strokeWidth=1;fontFamily=Comic Sans MS;fontSize=14;align=center;sketch=1;fontStyle=1" vertex="1" parent="1">
          <mxGeometry x="445" y="630" width="90" height="60" as="geometry" />
        </mxCell>
        <mxCell id="hwHDSwvyFzbsl33l7Glt-19" value="Maven" style="ellipse;whiteSpace=wrap;html=1;rounded=0;shadow=1;comic=0;labelBackgroundColor=none;strokeWidth=1;fontFamily=Comic Sans MS;fontSize=14;align=center;sketch=1;fontStyle=1" vertex="1" parent="1">
          <mxGeometry x="369" y="1050" width="90" height="60" as="geometry" />
        </mxCell>
        <mxCell id="hwHDSwvyFzbsl33l7Glt-20" value="Gradle" style="ellipse;whiteSpace=wrap;html=1;rounded=0;shadow=1;comic=0;labelBackgroundColor=none;strokeWidth=1;fontFamily=Comic Sans MS;fontSize=14;align=center;sketch=1;fontStyle=1" vertex="1" parent="1">
          <mxGeometry x="165" y="1050" width="90" height="60" as="geometry" />
        </mxCell>
        <mxCell id="hwHDSwvyFzbsl33l7Glt-21" value="Build Tools" style="ellipse;whiteSpace=wrap;html=1;rounded=0;shadow=0;comic=0;labelBackgroundColor=none;strokeWidth=1;fontFamily=Comic Sans MS;fontSize=14;align=center;sketch=1;fontStyle=1" vertex="1" parent="1">
          <mxGeometry x="274" y="920" width="90" height="60" as="geometry" />
        </mxCell>
        <mxCell id="hwHDSwvyFzbsl33l7Glt-22" value="Design Patterns" style="ellipse;whiteSpace=wrap;html=1;rounded=0;shadow=0;comic=0;labelBackgroundColor=none;strokeWidth=1;fontFamily=Comic Sans MS;fontSize=14;align=center;sketch=1;fontStyle=1" vertex="1" parent="1">
          <mxGeometry x="572.5" y="585" width="90" height="60" as="geometry" />
        </mxCell>
        <mxCell id="hwHDSwvyFzbsl33l7Glt-23" value="Event Driven Apps" style="ellipse;whiteSpace=wrap;html=1;rounded=0;shadow=0;comic=0;labelBackgroundColor=none;strokeWidth=1;fontFamily=Comic Sans MS;fontSize=14;align=center;sketch=1;fontStyle=1" vertex="1" parent="1">
          <mxGeometry x="575" y="680" width="90" height="60" as="geometry" />
        </mxCell>
        <mxCell id="hwHDSwvyFzbsl33l7Glt-24" value="" style="edgeStyle=none;shape=connector;curved=1;rounded=1;sketch=1;orthogonalLoop=1;jettySize=auto;html=1;labelBackgroundColor=default;fontFamily=Helvetica;fontSize=14;fontColor=#0000FF;endArrow=open;endFill=0;strokeColor=default;exitX=0.5;exitY=1;exitDx=0;exitDy=0;shadow=1;" edge="1" parent="1" source="hwHDSwvyFzbsl33l7Glt-26" target="hwHDSwvyFzbsl33l7Glt-34">
          <mxGeometry relative="1" as="geometry" />
        </mxCell>
        <mxCell id="hwHDSwvyFzbsl33l7Glt-25" value="" style="edgeStyle=none;shape=connector;curved=1;rounded=1;sketch=1;orthogonalLoop=1;jettySize=auto;html=1;labelBackgroundColor=default;fontFamily=Helvetica;fontSize=14;fontColor=#0000FF;endArrow=open;endFill=0;strokeColor=default;shadow=1;" edge="1" parent="1" source="hwHDSwvyFzbsl33l7Glt-26" target="hwHDSwvyFzbsl33l7Glt-35">
          <mxGeometry relative="1" as="geometry" />
        </mxCell>
        <mxCell id="hwHDSwvyFzbsl33l7Glt-26" value="Testing" style="ellipse;whiteSpace=wrap;html=1;rounded=0;shadow=0;comic=0;labelBackgroundColor=none;strokeWidth=1;fontFamily=Comic Sans MS;fontSize=14;align=center;sketch=1;fontStyle=1" vertex="1" parent="1">
          <mxGeometry x="-70" y="740" width="90" height="60" as="geometry" />
        </mxCell>
        <mxCell id="hwHDSwvyFzbsl33l7Glt-27" value="" style="edgeStyle=none;shape=connector;curved=1;rounded=1;sketch=1;orthogonalLoop=1;jettySize=auto;html=1;labelBackgroundColor=default;fontFamily=Helvetica;fontSize=14;fontColor=#0000FF;endArrow=open;endFill=0;strokeColor=default;shadow=1;" edge="1" parent="1" source="hwHDSwvyFzbsl33l7Glt-29" target="hwHDSwvyFzbsl33l7Glt-31">
          <mxGeometry relative="1" as="geometry">
            <Array as="points">
              <mxPoint x="520" y="300" />
              <mxPoint x="580" y="260" />
            </Array>
          </mxGeometry>
        </mxCell>
        <mxCell id="hwHDSwvyFzbsl33l7Glt-28" value="" style="edgeStyle=none;shape=connector;curved=1;rounded=1;sketch=1;orthogonalLoop=1;jettySize=auto;html=1;labelBackgroundColor=default;fontFamily=Comic Sans MS;fontSize=14;fontColor=default;endArrow=open;endFill=0;strokeColor=default;" edge="1" parent="1" source="hwHDSwvyFzbsl33l7Glt-29" target="hwHDSwvyFzbsl33l7Glt-36">
          <mxGeometry relative="1" as="geometry" />
        </mxCell>
        <mxCell id="hwHDSwvyFzbsl33l7Glt-29" value="API Documentation" style="ellipse;whiteSpace=wrap;html=1;rounded=0;shadow=0;comic=0;labelBackgroundColor=none;strokeWidth=1;fontFamily=Comic Sans MS;fontSize=14;align=center;sketch=1;fontStyle=1" vertex="1" parent="1">
          <mxGeometry x="420" y="310" width="120" height="80" as="geometry" />
        </mxCell>
        <mxCell id="hwHDSwvyFzbsl33l7Glt-30" value="" style="endArrow=open;html=1;fontSize=14;fontColor=#0000FF;exitX=0.992;exitY=0.675;exitDx=0;exitDy=0;exitPerimeter=0;sketch=1;curved=1;endFill=0;" edge="1" parent="1" source="hwHDSwvyFzbsl33l7Glt-1" target="hwHDSwvyFzbsl33l7Glt-29">
          <mxGeometry width="50" height="50" relative="1" as="geometry">
            <mxPoint x="293.96000000000004" y="322" as="sourcePoint" />
            <mxPoint x="390" y="270" as="targetPoint" />
            <Array as="points">
              <mxPoint x="380" y="340" />
            </Array>
          </mxGeometry>
        </mxCell>
        <mxCell id="hwHDSwvyFzbsl33l7Glt-31" value="Swagger" style="ellipse;whiteSpace=wrap;html=1;rounded=0;shadow=0;comic=0;labelBackgroundColor=none;strokeWidth=1;fontFamily=Comic Sans MS;fontSize=14;align=center;sketch=1;fontStyle=1" vertex="1" parent="1">
          <mxGeometry x="640" y="220" width="80" height="50" as="geometry" />
        </mxCell>
        <mxCell id="hwHDSwvyFzbsl33l7Glt-32" value="Security" style="ellipse;whiteSpace=wrap;html=1;rounded=0;shadow=0;comic=0;labelBackgroundColor=none;strokeWidth=1;fontFamily=Comic Sans MS;fontSize=14;align=center;sketch=1;fontStyle=1" vertex="1" parent="1">
          <mxGeometry x="-100" y="260" width="90" height="60" as="geometry" />
        </mxCell>
        <mxCell id="hwHDSwvyFzbsl33l7Glt-33" value="Spring Boot" style="ellipse;whiteSpace=wrap;html=1;rounded=0;shadow=0;comic=0;labelBackgroundColor=none;strokeWidth=1;fontFamily=Comic Sans MS;fontSize=14;align=center;sketch=1;fontStyle=1" vertex="1" parent="1">
          <mxGeometry x="445" y="800" width="90" height="60" as="geometry" />
        </mxCell>
        <mxCell id="hwHDSwvyFzbsl33l7Glt-34" value="Mock Servers" style="ellipse;whiteSpace=wrap;html=1;rounded=0;shadow=0;comic=0;labelBackgroundColor=none;strokeWidth=1;fontFamily=Comic Sans MS;fontSize=14;align=center;sketch=1;fontStyle=1" vertex="1" parent="1">
          <mxGeometry x="-20" y="880" width="90" height="60" as="geometry" />
        </mxCell>
        <mxCell id="hwHDSwvyFzbsl33l7Glt-35" value="Selenium" style="ellipse;whiteSpace=wrap;html=1;fontSize=14;fontFamily=Comic Sans MS;rounded=0;shadow=0;comic=0;labelBackgroundColor=none;strokeWidth=1;sketch=1;fontStyle=1;" vertex="1" parent="1">
          <mxGeometry x="-200" y="860" width="90" height="50" as="geometry" />
        </mxCell>
        <mxCell id="hwHDSwvyFzbsl33l7Glt-36" value="&lt;span style=&quot;&quot;&gt;Backstage&lt;/span&gt;" style="ellipse;whiteSpace=wrap;html=1;fontSize=14;fontFamily=Comic Sans MS;rounded=0;shadow=0;comic=0;labelBackgroundColor=none;strokeWidth=1;sketch=1;fontStyle=1;" vertex="1" parent="1">
          <mxGeometry x="630" y="320" width="85" height="50" as="geometry" />
        </mxCell>
        <mxCell id="hwHDSwvyFzbsl33l7Glt-37" value="" style="edgeStyle=none;shape=connector;curved=1;rounded=1;sketch=1;orthogonalLoop=1;jettySize=auto;html=1;labelBackgroundColor=default;fontFamily=Comic Sans MS;fontSize=14;fontColor=default;endArrow=open;endFill=0;strokeColor=default;shadow=1;entryX=1;entryY=0.5;entryDx=0;entryDy=0;exitX=0;exitY=0.5;exitDx=0;exitDy=0;" edge="1" parent="1" source="hwHDSwvyFzbsl33l7Glt-1" target="hwHDSwvyFzbsl33l7Glt-32">
          <mxGeometry relative="1" as="geometry">
            <mxPoint x="312.76785861741473" y="789.9431977702106" as="sourcePoint" />
            <mxPoint x="326.21960812836096" y="930.0573183054285" as="targetPoint" />
            <Array as="points">
              <mxPoint x="70" y="270" />
            </Array>
          </mxGeometry>
        </mxCell>
      </root>
    </mxGraphModel>
  </diagram>
</mxfile>
